<svg width="421" height="61" viewBox="0 0 421 61" fill="none" xmlns="http://www.w3.org/2000/svg">
<path d="M44.36 3.84V14.8H29.48V60H15.8V14.8H0.92V3.84H44.36ZM86.1856 50.08H65.2256L61.8656 60H47.5456L67.8656 3.84H83.7056L104.026 60H89.5456L86.1856 50.08ZM82.6656 39.52L75.7056 18.96L68.8256 39.52H82.6656ZM107.89 31.84C107.89 26.2933 109.09 21.36 111.49 17.04C113.89 12.6667 117.223 9.28 121.49 6.88C125.81 4.42666 130.69 3.2 136.13 3.2C142.797 3.2 148.503 4.96 153.25 8.48C157.997 12 161.17 16.8 162.77 22.88H147.73C146.61 20.5333 145.01 18.7467 142.93 17.52C140.903 16.2933 138.583 15.68 135.97 15.68C131.757 15.68 128.343 17.1467 125.73 20.08C123.117 23.0133 121.81 26.9333 121.81 31.84C121.81 36.7467 123.117 40.6667 125.73 43.6C128.343 46.5333 131.757 48 135.97 48C138.583 48 140.903 47.3867 142.93 46.16C145.01 44.9333 146.61 43.1467 147.73 40.8H162.77C161.17 46.88 157.997 51.68 153.25 55.2C148.503 58.6667 142.797 60.4 136.13 60.4C130.69 60.4 125.81 59.2 121.49 56.8C117.223 54.3467 113.89 50.96 111.49 46.64C109.09 42.32 107.89 37.3867 107.89 31.84ZM219.788 3.84V60H206.108V36.88H184.828V60H171.148V3.84H184.828V25.84H206.108V3.84H219.788ZM243.343 14.8V26.16H261.663V36.72H243.343V49.04H264.063V60H229.663V3.84H264.063V14.8H243.343ZM323.184 60H309.504L286.624 25.36V60H272.944V3.84H286.624L309.504 38.64V3.84H323.184V60ZM347.254 14.32V1.6H369.414V60H355.174V14.32H347.254ZM393.492 42.88C394.292 47.0933 396.745 49.2 400.852 49.2C403.679 49.2 405.679 47.9467 406.852 45.44C408.025 42.9333 408.612 38.8533 408.612 33.2C407.439 34.8533 405.839 36.1333 403.812 37.04C401.785 37.9467 399.519 38.4 397.012 38.4C393.599 38.4 390.559 37.7067 387.892 36.32C385.225 34.88 383.119 32.7733 381.572 30C380.079 27.1733 379.332 23.76 379.332 19.76C379.332 15.8133 380.132 12.3733 381.732 9.44C383.385 6.50666 385.705 4.24 388.692 2.64C391.732 1.04 395.305 0.239997 399.412 0.239997C407.305 0.239997 412.825 2.69333 415.972 7.6C419.119 12.5067 420.692 19.7333 420.692 29.28C420.692 36.2133 420.052 41.9467 418.772 46.48C417.545 50.96 415.439 54.3733 412.452 56.72C409.519 59.0667 405.492 60.24 400.372 60.24C396.319 60.24 392.852 59.44 389.972 57.84C387.145 56.24 384.959 54.1333 383.412 51.52C381.919 48.9067 381.065 46.0267 380.852 42.88H393.492ZM400.132 27.6C402.372 27.6 404.159 26.9333 405.492 25.6C406.825 24.2133 407.492 22.3467 407.492 20C407.492 17.44 406.799 15.4667 405.412 14.08C404.025 12.6933 402.159 12 399.812 12C397.465 12 395.599 12.72 394.212 14.16C392.879 15.5467 392.212 17.4667 392.212 19.92C392.212 22.2133 392.879 24.08 394.212 25.52C395.599 26.9067 397.572 27.6 400.132 27.6Z" fill="#22262A"/>
</svg>
