<svg width="446" height="58" viewBox="0 0 446 58" fill="none" xmlns="http://www.w3.org/2000/svg">
<path d="M0.64 28.84C0.64 23.2933 1.84 18.36 4.24 14.04C6.64 9.66667 9.97333 6.28 14.24 3.88C18.56 1.42666 23.44 0.199997 28.88 0.199997C35.5467 0.199997 41.2533 1.96 46 5.48C50.7467 9 53.92 13.8 55.52 19.88H40.48C39.36 17.5333 37.76 15.7467 35.68 14.52C33.6533 13.2933 31.3333 12.68 28.72 12.68C24.5067 12.68 21.0933 14.1467 18.48 17.08C15.8667 20.0133 14.56 23.9333 14.56 28.84C14.56 33.7467 15.8667 37.6667 18.48 40.6C21.0933 43.5333 24.5067 45 28.72 45C31.3333 45 33.6533 44.3867 35.68 43.16C37.76 41.9333 39.36 40.1467 40.48 37.8H55.52C53.92 43.88 50.7467 48.68 46 52.2C41.2533 55.6667 35.5467 57.4 28.88 57.4C23.44 57.4 18.56 56.2 14.24 53.8C9.97333 51.3467 6.64 47.96 4.24 43.64C1.84 39.32 0.64 34.3867 0.64 28.84ZM90.4575 57.56C85.1775 57.56 80.3242 56.3333 75.8975 53.88C71.5242 51.4267 68.0308 48.0133 65.4175 43.64C62.8575 39.2133 61.5775 34.2533 61.5775 28.76C61.5775 23.2667 62.8575 18.3333 65.4175 13.96C68.0308 9.58667 71.5242 6.17333 75.8975 3.72C80.3242 1.26667 85.1775 0.039999 90.4575 0.039999C95.7375 0.039999 100.564 1.26667 104.938 3.72C109.364 6.17333 112.831 9.58667 115.338 13.96C117.898 18.3333 119.178 23.2667 119.178 28.76C119.178 34.2533 117.898 39.2133 115.338 43.64C112.778 48.0133 109.311 51.4267 104.938 53.88C100.564 56.3333 95.7375 57.56 90.4575 57.56ZM90.4575 45.08C94.9375 45.08 98.5108 43.5867 101.177 40.6C103.898 37.6133 105.258 33.6667 105.258 28.76C105.258 23.8 103.898 19.8533 101.177 16.92C98.5108 13.9333 94.9375 12.44 90.4575 12.44C85.9242 12.44 82.2975 13.9067 79.5775 16.84C76.9108 19.7733 75.5775 23.7467 75.5775 28.76C75.5775 33.72 76.9108 37.6933 79.5775 40.68C82.2975 43.6133 85.9242 45.08 90.4575 45.08ZM140.468 46.44H158.388V57H126.788V0.839998H140.468V46.44ZM178.593 46.44H196.513V57H164.913V0.839998H178.593V46.44ZM216.478 0.839998V34.44C216.478 37.8 217.305 40.3867 218.958 42.2C220.611 44.0133 223.038 44.92 226.238 44.92C229.438 44.92 231.891 44.0133 233.598 42.2C235.305 40.3867 236.158 37.8 236.158 34.44V0.839998H249.838V34.36C249.838 39.3733 248.771 43.6133 246.638 47.08C244.505 50.5467 241.625 53.16 237.998 54.92C234.425 56.68 230.425 57.56 225.998 57.56C221.571 57.56 217.598 56.7067 214.078 55C210.611 53.24 207.865 50.6267 205.838 47.16C203.811 43.64 202.798 39.3733 202.798 34.36V0.839998H216.478ZM279.764 57.56C275.658 57.56 271.978 56.8933 268.724 55.56C265.471 54.2267 262.858 52.2533 260.884 49.64C258.964 47.0267 257.951 43.88 257.844 40.2H272.404C272.618 42.28 273.338 43.88 274.564 45C275.791 46.0667 277.391 46.6 279.364 46.6C281.391 46.6 282.991 46.1467 284.164 45.24C285.338 44.28 285.924 42.9733 285.924 41.32C285.924 39.9333 285.444 38.7867 284.484 37.88C283.578 36.9733 282.431 36.2267 281.044 35.64C279.711 35.0533 277.791 34.3867 275.284 33.64C271.658 32.52 268.698 31.4 266.404 30.28C264.111 29.16 262.138 27.5067 260.484 25.32C258.831 23.1333 258.004 20.28 258.004 16.76C258.004 11.5333 259.898 7.45333 263.684 4.52C267.471 1.53333 272.404 0.039999 278.484 0.039999C284.671 0.039999 289.658 1.53333 293.444 4.52C297.231 7.45333 299.258 11.56 299.524 16.84H284.724C284.618 15.0267 283.951 13.6133 282.724 12.6C281.498 11.5333 279.924 11 278.004 11C276.351 11 275.018 11.4533 274.004 12.36C272.991 13.2133 272.484 14.4667 272.484 16.12C272.484 17.9333 273.338 19.3467 275.044 20.36C276.751 21.3733 279.418 22.4667 283.044 23.64C286.671 24.8667 289.604 26.04 291.844 27.16C294.138 28.28 296.111 29.9067 297.764 32.04C299.418 34.1733 300.244 36.92 300.244 40.28C300.244 43.48 299.418 46.3867 297.764 49C296.164 51.6133 293.818 53.6933 290.724 55.24C287.631 56.7867 283.978 57.56 279.764 57.56ZM322.343 0.839998V57H308.663V0.839998H322.343ZM358.817 57.56C353.537 57.56 348.684 56.3333 344.257 53.88C339.884 51.4267 336.39 48.0133 333.777 43.64C331.217 39.2133 329.937 34.2533 329.937 28.76C329.937 23.2667 331.217 18.3333 333.777 13.96C336.39 9.58667 339.884 6.17333 344.257 3.72C348.684 1.26667 353.537 0.039999 358.817 0.039999C364.097 0.039999 368.924 1.26667 373.297 3.72C377.724 6.17333 381.19 9.58667 383.697 13.96C386.257 18.3333 387.537 23.2667 387.537 28.76C387.537 34.2533 386.257 39.2133 383.697 43.64C381.137 48.0133 377.67 51.4267 373.297 53.88C368.924 56.3333 364.097 57.56 358.817 57.56ZM358.817 45.08C363.297 45.08 366.87 43.5867 369.537 40.6C372.257 37.6133 373.617 33.6667 373.617 28.76C373.617 23.8 372.257 19.8533 369.537 16.92C366.87 13.9333 363.297 12.44 358.817 12.44C354.284 12.44 350.657 13.9067 347.937 16.84C345.27 19.7733 343.937 23.7467 343.937 28.76C343.937 33.72 345.27 37.6933 347.937 40.68C350.657 43.6133 354.284 45.08 358.817 45.08ZM445.388 57H431.708L408.828 22.36V57H395.148V0.839998H408.828L431.708 35.64V0.839998H445.388V57Z" fill="#22262A"/>
</svg>
